<svg width="85" height="40" viewBox="0 0 85 40" fill="none" xmlns="http://www.w3.org/2000/svg">
<path d="M39.7035 20C39.7035 31.0457 30.8156 40 19.8518 40C8.88793 40 0 31.0457 0 20C0 8.95431 8.88793 0 19.8518 0C30.8156 0 39.7035 8.95431 39.7035 20ZM1.58814 20C1.58814 30.162 9.76504 38.4 19.8518 38.4C29.9385 38.4 38.1154 30.162 38.1154 20C38.1154 9.83796 29.9385 1.6 19.8518 1.6C9.76504 1.6 1.58814 9.83796 1.58814 20Z" fill="#2F3C7E"/>
<path d="M33.748 20C33.748 27.732 27.5264 34 19.8518 34C12.1771 34 5.95553 27.732 5.95553 20C5.95553 12.268 12.1771 6 19.8518 6C27.5264 6 33.748 12.268 33.748 20ZM7.62307 20C7.62307 26.8041 13.098 32.32 19.8518 32.32C26.6055 32.32 32.0804 26.8041 32.0804 20C32.0804 13.1959 26.6055 7.68 19.8518 7.68C13.098 7.68 7.62307 13.1959 7.62307 20Z" fill="#2F3C7E"/>
<path d="M27.7925 20C27.7925 24.4183 24.2373 28 19.8518 28C15.4662 28 11.9111 24.4183 11.9111 20C11.9111 15.5817 15.4662 12 19.8518 12C24.2373 12 27.7925 15.5817 27.7925 20ZM13.4992 20C13.4992 23.5346 16.3433 26.4 19.8518 26.4C23.3602 26.4 26.2043 23.5346 26.2043 20C26.2043 16.4654 23.3602 13.6 19.8518 13.6C16.3433 13.6 13.4992 16.4654 13.4992 20Z" fill="#2F3C7E"/>
<path d="M44.5283 17.2V8.47273H47.8444C48.4704 8.47273 48.9907 8.57216 49.4052 8.77102C49.8225 8.96704 50.1341 9.23551 50.34 9.57642C50.5486 9.91733 50.653 10.3037 50.653 10.7355C50.653 11.0906 50.5853 11.3946 50.45 11.6474C50.3146 11.8974 50.1327 12.1006 49.9043 12.2568C49.6759 12.4131 49.4207 12.5253 49.1387 12.5935V12.6787C49.4461 12.6957 49.7408 12.7909 50.0227 12.9642C50.3076 13.1347 50.5402 13.3761 50.7207 13.6886C50.9011 14.0011 50.9914 14.379 50.9914 14.8222C50.9914 15.2739 50.8828 15.6801 50.6657 16.0409C50.4485 16.3989 50.1214 16.6815 49.6844 16.8889C49.2473 17.0963 48.6974 17.2 48.0348 17.2H44.5283ZM46.0975 15.879H47.7852C48.3548 15.879 48.7651 15.7696 49.0161 15.5509C49.2698 15.3293 49.3967 15.0452 49.3967 14.6986C49.3967 14.4401 49.3333 14.2071 49.2064 13.9997C49.0795 13.7895 48.899 13.6247 48.665 13.5054C48.4309 13.3832 48.1518 13.3222 47.8275 13.3222H46.0975V15.879ZM46.0975 12.1844H47.6498C47.9206 12.1844 48.1645 12.1347 48.3816 12.0352C48.5987 11.933 48.7693 11.7895 48.8934 11.6048C49.0203 11.4173 49.0837 11.1957 49.0837 10.9401C49.0837 10.602 48.9653 10.3236 48.7284 10.1048C48.4944 9.88608 48.1461 9.7767 47.6837 9.7767H46.0975V12.1844Z" fill="#2F3C7E"/>
<path d="M55.1228 17.3278C54.4883 17.3278 53.9385 17.1872 53.4732 16.906C53.0079 16.6247 52.647 16.2312 52.3904 15.7256C52.1366 15.2199 52.0097 14.629 52.0097 13.9528C52.0097 13.2767 52.1366 12.6844 52.3904 12.1759C52.647 11.6673 53.0079 11.2724 53.4732 10.9912C53.9385 10.7099 54.4883 10.5693 55.1228 10.5693C55.7573 10.5693 56.3071 10.7099 56.7724 10.9912C57.2377 11.2724 57.5972 11.6673 57.851 12.1759C58.1076 12.6844 58.2359 13.2767 58.2359 13.9528C58.2359 14.629 58.1076 15.2199 57.851 15.7256C57.5972 16.2312 57.2377 16.6247 56.7724 16.906C56.3071 17.1872 55.7573 17.3278 55.1228 17.3278ZM55.1313 16.092C55.4753 16.092 55.7629 15.9969 55.9941 15.8065C56.2254 15.6134 56.3974 15.3548 56.5102 15.031C56.6258 14.7071 56.6836 14.3463 56.6836 13.9486C56.6836 13.548 56.6258 13.1858 56.5102 12.8619C56.3974 12.5352 56.2254 12.2753 55.9941 12.0821C55.7629 11.8889 55.4753 11.7923 55.1313 11.7923C54.7788 11.7923 54.4855 11.8889 54.2515 12.0821C54.0202 12.2753 53.8468 12.5352 53.7312 12.8619C53.6184 13.1858 53.562 13.548 53.562 13.9486C53.562 14.3463 53.6184 14.7071 53.7312 15.031C53.8468 15.3548 54.0202 15.6134 54.2515 15.8065C54.4855 15.9969 54.7788 16.092 55.1313 16.092Z" fill="#2F3C7E"/>
<path d="M62.7798 10.6545V11.8477H59.0449V10.6545H62.7798ZM59.9669 9.08636H61.4981V15.2312C61.4981 15.4386 61.5291 15.5977 61.5912 15.7085C61.656 15.8165 61.7406 15.8903 61.845 15.9301C61.9493 15.9699 62.0649 15.9898 62.1918 15.9898C62.2877 15.9898 62.3751 15.9827 62.4541 15.9685C62.5358 15.9543 62.5979 15.9415 62.6402 15.9301L62.8982 17.1361C62.8164 17.1645 62.6994 17.1957 62.5471 17.2298C62.3977 17.2639 62.2144 17.2838 61.9972 17.2895C61.6137 17.3009 61.2683 17.2426 60.9609 17.1148C60.6536 16.9841 60.4097 16.7824 60.2292 16.5097C60.0516 16.2369 59.9641 15.896 59.9669 15.4869V9.08636Z" fill="#2F3C7E"/>
<path d="M67.3046 10.6545V11.8477H63.5697V10.6545H67.3046ZM64.4918 9.08636H66.0229V15.2312C66.0229 15.4386 66.054 15.5977 66.116 15.7085C66.1808 15.8165 66.2654 15.8903 66.3698 15.9301C66.4741 15.9699 66.5897 15.9898 66.7166 15.9898C66.8125 15.9898 66.8999 15.9827 66.9789 15.9685C67.0606 15.9543 67.1227 15.9415 67.165 15.9301L67.423 17.1361C67.3412 17.1645 67.2242 17.1957 67.0719 17.2298C66.9225 17.2639 66.7392 17.2838 66.522 17.2895C66.1385 17.3009 65.7931 17.2426 65.4858 17.1148C65.1784 16.9841 64.9345 16.7824 64.754 16.5097C64.5764 16.2369 64.4889 15.896 64.4918 15.4869V9.08636Z" fill="#2F3C7E"/>
<path d="M70.2559 8.47273V17.2H68.7247V8.47273H70.2559Z" fill="#2F3C7E"/>
<path d="M74.7067 17.3278C74.0553 17.3278 73.4927 17.1915 73.019 16.9188C72.5481 16.6432 72.1857 16.254 71.9319 15.7511C71.6781 15.2455 71.5513 14.6503 71.5513 13.9656C71.5513 13.2923 71.6781 12.7014 71.9319 12.1929C72.1885 11.6815 72.5467 11.2838 73.0063 10.9997C73.4659 10.7128 74.0059 10.5693 74.6263 10.5693C75.0267 10.5693 75.4046 10.6347 75.7599 10.7653C76.118 10.8932 76.4338 11.092 76.7074 11.3619C76.9837 11.6318 77.2008 11.9756 77.3587 12.3932C77.5167 12.808 77.5956 13.3023 77.5956 13.8761V14.3491H72.2703V13.3094H76.1279C76.1251 13.0139 76.0616 12.7511 75.9375 12.521C75.8135 12.2881 75.64 12.1048 75.4173 11.9713C75.1973 11.8378 74.9407 11.771 74.6475 11.771C74.3344 11.771 74.0595 11.8477 73.8226 12.0011C73.5858 12.1517 73.4011 12.3506 73.2685 12.5977C73.1388 12.842 73.0726 13.1105 73.0697 13.4031V14.3108C73.0697 14.6915 73.1388 15.0182 73.277 15.2909C73.4152 15.5608 73.6083 15.7682 73.8565 15.9131C74.1046 16.0551 74.3951 16.1261 74.7278 16.1261C74.9506 16.1261 75.1522 16.0949 75.3327 16.0324C75.5131 15.967 75.6696 15.8719 75.8022 15.7469C75.9347 15.6219 76.0348 15.467 76.1025 15.2824L77.5322 15.4443C77.4419 15.825 77.2699 16.1574 77.0161 16.4415C76.7652 16.7227 76.4437 16.9415 76.0517 17.0977C75.6598 17.2511 75.2114 17.3278 74.7067 17.3278Z" fill="#2F3C7E"/>
<path d="M81.3019 17.3151C80.7915 17.3151 80.3347 17.183 79.9315 16.9188C79.5283 16.6545 79.2096 16.271 78.9756 15.7682C78.7415 15.2653 78.6245 14.6545 78.6245 13.9358C78.6245 13.2085 78.7429 12.5949 78.9798 12.0949C79.2195 11.592 79.5424 11.2128 79.9484 10.9571C80.3545 10.6986 80.8071 10.5693 81.3062 10.5693C81.6869 10.5693 81.9999 10.6347 82.2452 10.7653C82.4905 10.8932 82.6851 11.048 82.8289 11.2298C82.9727 11.4088 83.0841 11.5778 83.163 11.7369H83.2265V8.47273H84.7619V17.2H83.2561V16.1688H83.163C83.0841 16.3278 82.9699 16.4969 82.8204 16.6759C82.671 16.852 82.4736 17.0026 82.2283 17.1276C81.9829 17.2526 81.6742 17.3151 81.3019 17.3151ZM81.7292 16.0494C82.0534 16.0494 82.3298 15.9614 82.5582 15.7852C82.7866 15.6062 82.96 15.3577 83.0785 15.0395C83.1969 14.7213 83.2561 14.3506 83.2561 13.9273C83.2561 13.504 83.1969 13.1361 83.0785 12.8236C82.9628 12.5111 82.7908 12.2682 82.5624 12.0949C82.3368 11.9216 82.0591 11.8349 81.7292 11.8349C81.388 11.8349 81.1031 11.9244 80.8747 12.1034C80.6463 12.2824 80.4743 12.5295 80.3587 12.8449C80.2431 13.1602 80.1853 13.521 80.1853 13.9273C80.1853 14.3364 80.2431 14.7014 80.3587 15.0224C80.4771 15.3406 80.6506 15.592 80.879 15.7767C81.1102 15.9585 81.3936 16.0494 81.7292 16.0494Z" fill="#2F3C7E"/>
<path d="M51.9431 25.8173H50.3611C50.316 25.556 50.2328 25.3244 50.1116 25.1227C49.9903 24.9182 49.8395 24.7449 49.659 24.6028C49.4785 24.4608 49.2727 24.3543 49.0414 24.2832C48.813 24.2094 48.5663 24.1724 48.3012 24.1724C47.8303 24.1724 47.413 24.2918 47.0492 24.5304C46.6855 24.7662 46.4007 25.1128 46.1948 25.5702C45.989 26.0247 45.886 26.5801 45.886 27.2364C45.886 27.904 45.989 28.4665 46.1948 28.9239C46.4035 29.3784 46.6883 29.7222 47.0492 29.9551C47.413 30.1852 47.8289 30.3003 48.297 30.3003C48.5564 30.3003 48.7989 30.2662 49.0245 30.198C49.2529 30.127 49.4574 30.0233 49.6378 29.8869C49.8211 29.7506 49.9748 29.583 50.0989 29.3841C50.2258 29.1852 50.3132 28.958 50.3611 28.7023L51.9431 28.7108C51.8839 29.1256 51.7555 29.5148 51.5582 29.8784C51.3636 30.242 51.1084 30.5631 50.7926 30.8415C50.4767 31.117 50.1073 31.333 49.6844 31.4892C49.2614 31.6426 48.7919 31.7193 48.2759 31.7193C47.5145 31.7193 46.8349 31.5418 46.2371 31.1866C45.6393 30.8315 45.1684 30.3187 44.8244 29.6483C44.4803 28.9778 44.3083 28.1739 44.3083 27.2364C44.3083 26.296 44.4817 25.492 44.8286 24.8244C45.1754 24.154 45.6478 23.6412 46.2456 23.2861C46.8434 22.931 47.5201 22.7534 48.2759 22.7534C48.758 22.7534 49.2064 22.8216 49.6209 22.958C50.0354 23.0943 50.4048 23.2946 50.7291 23.5588C51.0534 23.8202 51.3199 24.1412 51.5285 24.5219C51.74 24.8997 51.8782 25.3315 51.9431 25.8173Z" fill="#2F3C7E"/>
<path d="M54.8436 22.8727V31.6H53.3125V22.8727H54.8436Z" fill="#2F3C7E"/>
<path d="M58.2877 31.7321C57.876 31.7321 57.5052 31.6582 57.1753 31.5105C56.8482 31.3599 56.5888 31.1384 56.397 30.8457C56.2081 30.5531 56.1136 30.1923 56.1136 29.7634C56.1136 29.394 56.1813 29.0886 56.3167 28.8472C56.452 28.6057 56.6367 28.4125 56.8708 28.2676C57.1048 28.1227 57.3685 28.0134 57.6617 27.9395C57.9578 27.8628 58.2638 27.8074 58.5796 27.7733C58.9603 27.7335 59.269 27.698 59.5059 27.6668C59.7428 27.6327 59.9148 27.5815 60.0219 27.5134C60.1319 27.4423 60.1869 27.333 60.1869 27.1852V27.1597C60.1869 26.8386 60.0924 26.5901 59.9035 26.4139C59.7146 26.2378 59.4425 26.1497 59.0872 26.1497C58.7121 26.1497 58.4146 26.2321 58.1947 26.3969C57.9775 26.5616 57.8309 26.7563 57.7548 26.9807L56.3251 26.7761C56.4379 26.3784 56.624 26.046 56.8834 25.779C57.1429 25.5091 57.4601 25.3074 57.8351 25.1739C58.2102 25.0375 58.6247 24.9693 59.0787 24.9693C59.3917 24.9693 59.7033 25.0063 60.0135 25.0801C60.3237 25.154 60.6071 25.2761 60.8637 25.4466C61.1203 25.6142 61.3261 25.8429 61.4812 26.1327C61.6391 26.4224 61.7181 26.7847 61.7181 27.2193V31.6H60.2461V30.7009H60.1954C60.1023 30.8827 59.9712 31.0531 59.802 31.2122C59.6356 31.3685 59.4255 31.4949 59.1718 31.5915C58.9208 31.6852 58.6261 31.7321 58.2877 31.7321ZM58.6853 30.5986C58.9927 30.5986 59.2592 30.5375 59.4848 30.4153C59.7104 30.2903 59.8838 30.1256 60.005 29.921C60.1291 29.7165 60.1911 29.4935 60.1911 29.252V28.4807C60.1432 28.5205 60.0614 28.5574 59.9458 28.5915C59.833 28.6256 59.7061 28.6554 59.5651 28.681C59.4241 28.7065 59.2845 28.7293 59.1464 28.7491C59.0082 28.769 58.8884 28.7861 58.7868 28.8003C58.5584 28.8315 58.354 28.8827 58.1735 28.9537C57.9931 29.0247 57.8507 29.1241 57.7463 29.252C57.642 29.377 57.5898 29.5389 57.5898 29.7378C57.5898 30.0219 57.6927 30.2364 57.8986 30.3813C58.1044 30.5261 58.3667 30.5986 58.6853 30.5986Z" fill="#2F3C7E"/>
<path d="M63.2577 31.6V25.0545H64.7424V26.1455H64.8101C64.9285 25.7676 65.1315 25.4764 65.4191 25.2719C65.7096 25.0645 66.0409 24.9608 66.4131 24.9608C66.4977 24.9608 66.5922 24.9651 66.6965 24.9736C66.8037 24.9793 66.8925 24.9892 66.963 25.0034V26.4224C66.8981 26.3997 66.7952 26.3798 66.6542 26.3628C66.5161 26.3429 66.3821 26.333 66.2524 26.333C65.9732 26.333 65.7223 26.394 65.4995 26.5162C65.2795 26.6355 65.1061 26.8017 64.9792 27.0148C64.8523 27.2278 64.7889 27.4736 64.7889 27.752V31.6H63.2577Z" fill="#2F3C7E"/>
<path d="M67.9803 31.6V25.0545H69.5114V31.6H67.9803ZM68.7501 24.1256C68.5076 24.1256 68.2989 24.0446 68.1241 23.8827C67.9492 23.7179 67.8618 23.5205 67.8618 23.2903C67.8618 23.0574 67.9492 22.8599 68.1241 22.698C68.2989 22.5332 68.5076 22.4509 68.7501 22.4509C68.9954 22.4509 69.2041 22.5332 69.3761 22.698C69.5509 22.8599 69.6383 23.0574 69.6383 23.2903C69.6383 23.5205 69.5509 23.7179 69.3761 23.8827C69.2041 24.0446 68.9954 24.1256 68.7501 24.1256Z" fill="#2F3C7E"/>
<path d="M74.3302 25.0545V26.2477H70.5953V25.0545H74.3302ZM71.5174 23.4864H73.0486V29.6313C73.0486 29.8386 73.0796 29.9977 73.1416 30.1085C73.2065 30.2165 73.2911 30.2903 73.3954 30.3301C73.4998 30.3699 73.6154 30.3898 73.7423 30.3898C73.8382 30.3898 73.9256 30.3827 74.0045 30.3685C74.0863 30.3543 74.1483 30.3415 74.1906 30.3301L74.4486 31.5361C74.3669 31.5645 74.2498 31.5957 74.0976 31.6298C73.9481 31.6639 73.7648 31.6838 73.5477 31.6895C73.1642 31.7009 72.8188 31.6426 72.5114 31.5148C72.204 31.3841 71.9601 31.1824 71.7797 30.9097C71.602 30.6369 71.5146 30.296 71.5174 29.8869V23.4864Z" fill="#2F3C7E"/>
<path d="M76.5625 34.0545C76.3538 34.0545 76.1607 34.0375 75.983 34.0034C75.8082 33.9722 75.6686 33.9352 75.5643 33.8926L75.9196 32.6909C76.1423 32.7562 76.3411 32.7875 76.516 32.7847C76.6908 32.7818 76.8445 32.7264 76.977 32.6185C77.1124 32.5134 77.2266 32.3372 77.3196 32.0901L77.4507 31.7364L75.0947 25.0545H76.719L78.2163 29.9977H78.284L79.7856 25.0545H81.414L78.8127 32.3926C78.6915 32.7392 78.5307 33.0361 78.3305 33.2832C78.1303 33.5332 77.885 33.7236 77.5945 33.8543C77.3069 33.9878 76.9629 34.0545 76.5625 34.0545Z" fill="#2F3C7E"/>
</svg>
